<svg width="16" height="15" viewBox="0 0 16 15" fill="none" xmlns="http://www.w3.org/2000/svg">
<path d="M7.37683 3.51562C7.41589 3.08594 7.65027 2.85156 8.07996 2.8125C8.50964 2.85156 8.74402 3.08594 8.78308 3.51562V7.11914L11.2733 8.78906C11.6249 9.0625 11.6835 9.38477 11.4491 9.75586C11.1952 10.1074 10.8827 10.166 10.5116 9.93164L7.6991 8.05664C7.48425 7.93945 7.37683 7.74414 7.37683 7.4707V3.51562ZM8.07996 0C9.48621 0.0195312 10.746 0.361328 11.8593 1.02539C12.9921 1.68945 13.8905 2.58789 14.5546 3.7207C15.2186 4.83398 15.5604 6.09375 15.58 7.5C15.5604 8.90625 15.2186 10.166 14.5546 11.2793C13.8905 12.4121 12.9921 13.3105 11.8593 13.9746C10.746 14.6387 9.48621 14.9805 8.07996 15C6.67371 14.9805 5.41394 14.6387 4.30066 13.9746C3.16785 13.3105 2.26941 12.4121 1.60535 11.2793C0.941284 10.166 0.599487 8.90625 0.579956 7.5C0.599487 6.09375 0.941284 4.83398 1.60535 3.7207C2.26941 2.58789 3.16785 1.68945 4.30066 1.02539C5.41394 0.361328 6.67371 0.0195312 8.07996 0ZM1.98621 7.5C2.02527 9.21875 2.62097 10.6543 3.77332 11.8066C4.92566 12.959 6.36121 13.5547 8.07996 13.5938C9.79871 13.5547 11.2343 12.959 12.3866 11.8066C13.5389 10.6543 14.1346 9.21875 14.1737 7.5C14.1346 5.78125 13.5389 4.3457 12.3866 3.19336C11.2343 2.04102 9.79871 1.44531 8.07996 1.40625C6.36121 1.44531 4.92566 2.04102 3.77332 3.19336C2.62097 4.3457 2.02527 5.78125 1.98621 7.5Z" fill="black"/>
</svg>
