<svg width="16" height="16" viewBox="0 0 16 16" fill="none" xmlns="http://www.w3.org/2000/svg">
<path d="M15.7188 8.71875L11.7188 12.7188C11.5104 12.9062 11.2709 13 11 13C10.7292 13 10.4896 12.9062 10.2813 12.7188C10.0938 12.5104 10 12.2708 10 12C10 11.7292 10.0938 11.4896 10.2813 11.2812L12.5938 9H1.00003C0.708364 9 0.468781 8.90625 0.281281 8.71875C0.0937805 8.51042 3.05176e-05 8.26042 3.05176e-05 7.96875C0.0625305 7.36458 0.395864 7.04167 1.00003 7H12.5938L10.2813 4.71875C10.0938 4.51042 10 4.27083 10 4C10 3.72917 10.0938 3.48958 10.2813 3.28125C10.4896 3.09375 10.7292 3 11 3C11.2709 3 11.5104 3.09375 11.7188 3.28125L15.7188 7.28125C15.9063 7.48958 16 7.72917 16 8C16 8.27083 15.9063 8.51042 15.7188 8.71875Z" fill="white"/>
</svg>
