<svg width="17" height="16" viewBox="0 0 17 16" fill="none" xmlns="http://www.w3.org/2000/svg">
<path d="M9.17627 5.68749C8.78044 5.43749 8.42627 5.46874 8.11377 5.78124C7.84294 6.17708 7.87419 6.53124 8.20752 6.84374C8.58252 7.15624 8.77002 7.54166 8.77002 7.99999C8.77002 8.45833 8.58252 8.84374 8.20752 9.15624C7.87419 9.46874 7.84294 9.82291 8.11377 10.2187C8.2596 10.3854 8.4471 10.4687 8.67627 10.4687C8.86377 10.4687 9.03044 10.4167 9.17627 10.3125C9.8846 9.70833 10.2492 8.93749 10.27 7.99999C10.2492 7.06249 9.8846 6.29166 9.17627 5.68749ZM11.0513 3.34374C10.6763 3.09374 10.3221 3.12499 9.98877 3.43749C9.73877 3.83333 9.78044 4.18749 10.1138 4.49999C11.1971 5.41666 11.7492 6.57291 11.77 7.96874C11.7492 9.36458 11.1971 10.5208 10.1138 11.4375C9.78044 11.7708 9.73877 12.125 9.98877 12.5C10.1554 12.6875 10.3534 12.7812 10.5825 12.7812C10.7492 12.7812 10.9054 12.7187 11.0513 12.5937C11.7596 12.0312 12.3013 11.3437 12.6763 10.5312C13.0721 9.73958 13.27 8.88541 13.27 7.96874C13.2284 6.11458 12.4888 4.57291 11.0513 3.34374ZM12.9575 1.03124C12.5825 0.781243 12.2388 0.812493 11.9263 1.12499C11.6554 1.52083 11.6867 1.87499 12.02 2.18749C12.895 2.91666 13.5721 3.78124 14.0513 4.78124C14.5304 5.78124 14.77 6.84374 14.77 7.96874C14.77 9.09374 14.5304 10.1667 14.0513 11.1875C13.5721 12.1875 12.895 13.0521 12.02 13.7812C11.6867 14.0937 11.6554 14.4479 11.9263 14.8437C12.0721 15.0104 12.2596 15.0937 12.4888 15.0937C12.6554 15.0937 12.8117 15.0417 12.9575 14.9375C14.02 14.0833 14.8325 13.0521 15.395 11.8437C15.9784 10.6354 16.27 9.34374 16.27 7.96874C16.27 6.59374 15.9784 5.31249 15.395 4.12499C14.8325 2.93749 14.02 1.90624 12.9575 1.03124ZM4.98877 5.46874C5.34294 5.46874 5.60335 5.31249 5.77002 4.99999L6.83252 2.34374C6.93669 1.94791 6.83252 1.64583 6.52002 1.43749L4.42627 0.124993C4.09294 -0.0625076 3.78044 -0.0312576 3.48877 0.218743C2.05127 1.67708 1.09294 3.34374 0.61377 5.21874C0.155436 7.07291 0.155436 8.92708 0.61377 10.7812C1.09294 12.6562 2.05127 14.3229 3.48877 15.7812C3.78044 16.0312 4.09294 16.0625 4.42627 15.875L6.52002 14.5625C6.83252 14.3333 6.93669 14.0312 6.83252 13.6562L5.77002 11.0312C5.62419 10.6979 5.36377 10.5417 4.98877 10.5625L3.33252 10.7187C2.72835 8.90624 2.72835 7.09374 3.33252 5.28124L4.98877 5.46874Z" fill="#585858"/>
</svg>
