<svg width="13" height="16" viewBox="0 0 13 16" fill="none" xmlns="http://www.w3.org/2000/svg">
<path d="M6.93005 12C6.65922 12 6.41964 11.9062 6.2113 11.7188L1.2113 6.71875C1.0238 6.51042 0.930054 6.27083 0.930054 6C0.930054 5.72917 1.0238 5.48958 1.2113 5.28125C1.41964 5.09375 1.65922 5 1.93005 5C2.20089 5 2.44047 5.09375 2.6488 5.28125L6.93005 9.59375L11.2113 5.28125C11.4196 5.09375 11.6592 5 11.9301 5C12.2009 5 12.4405 5.09375 12.6488 5.28125C12.8363 5.48958 12.9301 5.72917 12.9301 6C12.9301 6.27083 12.8363 6.51042 12.6488 6.71875L7.6488 11.7188C7.44047 11.9062 7.20089 12 6.93005 12Z" fill="#0D0D0E"/>
</svg>
