<svg width="15" height="15" viewBox="0 0 15 15" fill="none" xmlns="http://www.w3.org/2000/svg">
<path d="M13.125 1.875H1.875C1.34766 1.89453 0.908203 2.08008 0.556641 2.43164C0.205078 2.7832 0.0195312 3.22266 0 3.75V11.25C0.0195312 11.7773 0.205078 12.2168 0.556641 12.5684C0.908203 12.9199 1.34766 13.1055 1.875 13.125H13.125C13.6523 13.1055 14.0918 12.9199 14.4434 12.5684C14.7949 12.2168 14.9805 11.7773 15 11.25V3.75C14.9805 3.22266 14.7949 2.7832 14.4434 2.43164C14.0918 2.08008 13.6523 1.89453 13.125 1.875ZM1.875 3.28125H13.125C13.418 3.30078 13.5742 3.45703 13.5938 3.75V4.39453L8.70117 8.4375C8.34961 8.73047 7.94922 8.87695 7.5 8.87695C7.05078 8.87695 6.65039 8.73047 6.29883 8.4375L1.40625 4.39453V3.75C1.42578 3.45703 1.58203 3.30078 1.875 3.28125ZM13.125 11.7188H1.875C1.58203 11.6992 1.42578 11.543 1.40625 11.25V6.24023L5.39062 9.55078C6.01562 10.0586 6.71875 10.3125 7.5 10.3125C8.28125 10.3125 8.98438 10.0586 9.60938 9.55078L13.5938 6.24023V11.25C13.5742 11.543 13.418 11.6992 13.125 11.7188Z" fill="black"/>
</svg>
