<svg width="31" height="31" viewBox="0 0 31 31" fill="none" xmlns="http://www.w3.org/2000/svg">
<path d="M13.1498 11.417C13.3023 11.5038 13.476 11.5467 13.6514 11.5407C13.8312 11.5242 14.0053 11.4696 14.1623 11.3804L25.4217 4.81046C25.177 4.384 24.8245 4.02939 24.3994 3.78223C23.9744 3.53507 23.4918 3.40406 23.0001 3.40234H4.25014C3.7583 3.4039 3.27554 3.53483 2.85032 3.782C2.4251 4.02916 2.0724 4.38386 1.82764 4.81046L13.1498 11.417Z" fill="white"/>
<path d="M25.8125 6.74902V13.2646C24.9104 12.9399 23.9587 12.775 23 12.7771C20.7633 12.7806 18.6192 13.6706 17.0376 15.2522C15.456 16.8338 14.566 18.9779 14.5625 21.2146C14.5623 21.528 14.5811 21.841 14.6188 22.1521H4.25C3.50476 22.1499 2.79069 21.8528 2.26372 21.3259C1.73676 20.7989 1.43973 20.0848 1.4375 19.3396V6.74902L12.2094 13.0396C12.6434 13.277 13.1303 13.4014 13.625 13.4014C14.1197 13.4014 14.6066 13.277 15.0406 13.0396L25.8125 6.74902Z" fill="white"/>
<path d="M23 14.6523C21.2595 14.6523 19.5903 15.3437 18.3596 16.5744C17.1289 17.8051 16.4375 19.4743 16.4375 21.2148C16.4375 22.9553 17.1289 24.6245 18.3596 25.8552C19.5903 27.0859 21.2595 27.7773 23 27.7773C23.2486 27.7773 23.4871 27.6785 23.6629 27.5027C23.8387 27.3269 23.9375 27.0884 23.9375 26.8398C23.9375 26.5912 23.8387 26.3527 23.6629 26.1769C23.4871 26.0011 23.2486 25.9023 23 25.9023C22.0729 25.9023 21.1666 25.6274 20.3958 25.1123C19.6249 24.5972 19.0241 23.8652 18.6693 23.0086C18.3145 22.1521 18.2217 21.2096 18.4026 20.3003C18.5834 19.391 19.0299 18.5558 19.6854 17.9002C20.341 17.2447 21.1762 16.7982 22.0855 16.6174C22.9948 16.4365 23.9373 16.5293 24.7938 16.8841C25.6504 17.2389 26.3824 17.8397 26.8975 18.6106C27.4126 19.3814 27.6875 20.2877 27.6875 21.2148V22.1523C27.6875 22.4009 27.5887 22.6394 27.4129 22.8152C27.2371 22.991 26.9986 23.0898 26.75 23.0898C26.5014 23.0898 26.2629 22.991 26.0871 22.8152C25.9113 22.6394 25.8125 22.4009 25.8125 22.1523V21.2148C25.8125 20.6585 25.6476 20.1148 25.3385 19.6523C25.0295 19.1897 24.5902 18.8293 24.0763 18.6164C23.5624 18.4035 22.9969 18.3478 22.4513 18.4563C21.9057 18.5649 21.4046 18.8327 21.0113 19.2261C20.6179 19.6194 20.3501 20.1205 20.2415 20.6661C20.133 21.2117 20.1887 21.7772 20.4016 22.2911C20.6145 22.805 20.9749 23.2443 21.4375 23.5533C21.9 23.8624 22.4437 24.0273 23 24.0273C23.4843 24.0242 23.9594 23.8946 24.3781 23.6514C24.7022 24.1678 25.1856 24.5646 25.7552 24.7819C26.3248 24.9992 26.9496 25.0251 27.5353 24.8558C28.121 24.6865 28.6356 24.331 29.0013 23.8433C29.367 23.3555 29.564 22.7619 29.5625 22.1523V21.2148C29.5605 19.4749 28.8685 17.8069 27.6382 16.5766C26.4079 15.3463 24.7399 14.6543 23 14.6523ZM23 22.1523C22.8146 22.1523 22.6333 22.0973 22.4792 21.9943C22.325 21.8913 22.2048 21.7449 22.1339 21.5736C22.0629 21.4023 22.0443 21.2138 22.0805 21.0319C22.1167 20.85 22.206 20.683 22.3371 20.5519C22.4682 20.4208 22.6352 20.3315 22.8171 20.2953C22.999 20.2591 23.1875 20.2777 23.3588 20.3487C23.5301 20.4196 23.6765 20.5398 23.7795 20.694C23.8825 20.8481 23.9375 21.0294 23.9375 21.2148C23.9375 21.4634 23.8387 21.7019 23.6629 21.8777C23.4871 22.0535 23.2486 22.1523 23 22.1523Z" fill="white"/>
</svg>
