<svg width="33" height="33" viewBox="0 0 33 33" fill="none" xmlns="http://www.w3.org/2000/svg">
<path fill-rule="evenodd" clip-rule="evenodd" d="M16.8901 2.25635C11.9261 2.25635 7.89014 6.32835 7.89014 11.351C7.89014 13.0523 8.63947 15.163 9.73014 17.2683C12.1314 21.9043 16.1314 26.5736 16.1314 26.5736C16.2253 26.683 16.3417 26.7707 16.4727 26.8309C16.6036 26.891 16.746 26.9222 16.8901 26.9222C17.0342 26.9222 17.1766 26.891 17.3075 26.8309C17.4385 26.7707 17.5549 26.683 17.6488 26.5736C17.6488 26.5736 21.6488 21.9043 24.0501 17.2683C25.1408 15.163 25.8901 13.0523 25.8901 11.351C25.8901 6.32835 21.8541 2.25635 16.8901 2.25635ZM16.8901 7.58969C15.9348 7.61545 15.0272 8.01307 14.3606 8.69789C13.694 9.38271 13.321 10.3007 13.321 11.2563C13.321 12.212 13.694 13.1299 14.3606 13.8148C15.0272 14.4996 15.9348 14.8972 16.8901 14.923C17.8454 14.8972 18.753 14.4996 19.4196 13.8148C20.0862 13.1299 20.4592 12.212 20.4592 11.2563C20.4592 10.3007 20.0862 9.38271 19.4196 8.69789C18.753 8.01307 17.8454 7.61545 16.8901 7.58969Z" fill="white"/>
<path fill-rule="evenodd" clip-rule="evenodd" d="M23.2689 23.7591C24.3529 24.0844 25.2463 24.4871 25.8636 24.9591C26.2636 25.2631 26.5569 25.5604 26.5569 25.9231C26.5569 26.1364 26.4356 26.3298 26.2649 26.5231C25.9823 26.8418 25.5623 27.1284 25.0423 27.3951C23.2049 28.3351 20.2343 28.9231 16.8903 28.9231C13.5463 28.9231 10.5756 28.3351 8.73829 27.3951C8.21829 27.1284 7.79829 26.8418 7.51563 26.5231C7.34496 26.3298 7.22363 26.1364 7.22363 25.9231C7.22363 25.5604 7.51696 25.2631 7.91696 24.9591C8.53429 24.4871 9.42763 24.0844 10.5116 23.7591C10.7657 23.6827 10.979 23.5085 11.1047 23.2749C11.2303 23.0412 11.258 22.7672 11.1816 22.5131C11.1052 22.259 10.931 22.0457 10.6974 21.92C10.4637 21.7944 10.1897 21.7667 9.93563 21.8431C8.28496 22.3404 7.00229 23.0218 6.23163 23.7751C5.55429 24.4351 5.22363 25.1738 5.22363 25.9231C5.22363 26.8591 5.75296 27.7924 6.82896 28.5711C8.71696 29.9364 12.5089 30.9231 16.8903 30.9231C21.2716 30.9231 25.0636 29.9364 26.9516 28.5711C28.0276 27.7924 28.5569 26.8591 28.5569 25.9231C28.5569 25.1738 28.2263 24.4351 27.5489 23.7751C26.7783 23.0218 25.4956 22.3404 23.8449 21.8431C23.7191 21.8053 23.5871 21.7926 23.4564 21.8058C23.3257 21.819 23.1989 21.8578 23.0832 21.92C22.9675 21.9823 22.8652 22.0667 22.7821 22.1684C22.699 22.2702 22.6368 22.3873 22.5989 22.5131C22.5611 22.6389 22.5484 22.7709 22.5616 22.9016C22.5748 23.0323 22.6137 23.1592 22.6759 23.2749C22.7381 23.3906 22.8225 23.4929 22.9242 23.576C23.026 23.659 23.1431 23.7213 23.2689 23.7591Z" fill="white"/>
</svg>
