<svg width="31" height="31" viewBox="0 0 31 31" fill="none" xmlns="http://www.w3.org/2000/svg">
<path d="M24.2891 2.40625H17.2578C13.8658 2.40625 11.1055 5.16654 11.1055 8.55859C11.1055 11.6528 13.4015 14.2208 16.3789 14.6483V17.3476C16.3788 17.5215 16.4303 17.6914 16.5268 17.836C16.6234 17.9805 16.7607 18.0931 16.9214 18.1595C17.2456 18.2948 17.6258 18.2223 17.8793 17.969L21.1374 14.7109H24.2891C27.6811 14.7109 30.5 11.9506 30.5 8.55859C30.5 5.16654 27.6811 2.40625 24.2891 2.40625ZM17.2578 9.43738C16.7723 9.43738 16.3789 9.04386 16.3789 8.55847C16.3789 8.07308 16.7723 7.67957 17.2578 7.67957C17.7432 7.67957 18.1367 8.07308 18.1367 8.55847C18.1367 9.04386 17.7432 9.43738 17.2578 9.43738ZM20.7734 9.43738C20.2879 9.43738 19.8945 9.04386 19.8945 8.55847C19.8945 8.07308 20.2879 7.67957 20.7734 7.67957C21.2588 7.67957 21.6523 8.07308 21.6523 8.55847C21.6523 9.04386 21.2588 9.43738 20.7734 9.43738ZM24.2891 9.43738C23.8036 9.43738 23.4102 9.04386 23.4102 8.55847C23.4102 8.07308 23.8036 7.67957 24.2891 7.67957C24.7745 7.67957 25.168 8.07308 25.168 8.55847C25.168 9.04386 24.7745 9.43738 24.2891 9.43738Z" fill="white"/>
<path d="M20.2461 28.7734C21.7 28.7734 22.8828 27.5906 22.8828 26.1367V22.621C22.8828 22.2425 22.6408 21.9069 22.282 21.7876L17.0209 20.0298C16.7634 19.9431 16.4819 19.9826 16.2553 20.1319L14.0186 21.6228C11.6496 20.4933 8.83871 17.6823 7.70914 15.3134L9.2 13.0766C9.27415 12.9652 9.32189 12.8383 9.33958 12.7056C9.35728 12.5729 9.34447 12.438 9.30213 12.311L7.54432 7.04998C7.48611 6.875 7.37428 6.72279 7.22469 6.61496C7.0751 6.50712 6.89534 6.44913 6.71094 6.44922H3.13672C1.68277 6.44922 0.5 7.61963 0.5 9.07357C0.5 19.1998 10.1198 28.7734 20.2461 28.7734Z" fill="white"/>
</svg>
